+ filenameToUse=/home/horvathandras/vatic/vatic/public/videouploads/DJI_0017_total_ragott_Homokmegy_20180715_napos_napraforgo_T3.avi
+ filenameNoDot=DJI_0017_total_ragott_Homokmegy_20180715_napos_napraforgo_T3
+ FullUploadPath=/home/horvathandras/vatic/vatic/public/videouploads/DJI_0017_total_ragott_Homokmegy_20180715_napos_napraforgo_T3.avi
+ VideoDataDir=/home/horvathandras/vatic/vatic/videos
+ AvailableObjectTypes='PozitívROI NegatívROI Túrás ~Friss ~1-2Hetes ~Régebbi ~Egyéb1 ~Egyéb2 ~Egyéb3 Rágás ~Friss ~1-2Hetes ~Régebbi ~Egyéb1 ~Egyéb2 ~Egyéb3 Törés ~Friss ~1-2Hetes ~Régebbi ~Egyéb1 ~Egyéb2 ~Egyéb3 Taposás ~Friss ~1-2Hetes ~Régebbi ~Egyéb1 ~Egyéb2 ~Egyéb3 EgészségesNövény Egyéb1 Egyéb2 Egyéb3 Egyéb4 Egyéb5 Bizonytalan Művelőút Gktaposás Vetőhiba Széldöntés Jégkár Belvíz Aszály Erózió EgyszikűGyom KétszikűGyom EgyébNövvédelmiPR'
++ dirname /home/horvathandras/vatic/vatic/vatic_publisher.sh
+ cd /home/horvathandras/vatic/vatic
+ touch /home/horvathandras/vatic/vatic/public/videouploads/DJI_0017_total_ragott_Homokmegy_20180715_napos_napraforgo_T3.avi
+ chmod 744 /home/horvathandras/vatic/vatic/public/videouploads/DJI_0017_total_ragott_Homokmegy_20180715_napos_napraforgo_T3.avi
+ mkdir /home/horvathandras/vatic/vatic/videos/DJI_0017_total_ragott_Homokmegy_20180715_napos_napraforgo_T3
+ turkic extract /home/horvathandras/vatic/vatic/public/videouploads/DJI_0017_total_ragott_Homokmegy_20180715_napos_napraforgo_T3.avi /home/horvathandras/vatic/vatic/videos/DJI_0017_total_ragott_Homokmegy_20180715_napos_napraforgo_T3 --no-resize
ffmpeg version 2.8.14-0ubuntu0.16.04.1 Copyright (c) 2000-2018 the FFmpeg developers
  built with gcc 5.4.0 (Ubuntu 5.4.0-6ubuntu1~16.04.9) 20160609
  configuration: --prefix=/usr --extra-version=0ubuntu0.16.04.1 --build-suffix=-ffmpeg --toolchain=hardened --libdir=/usr/lib/x86_64-linux-gnu --incdir=/usr/include/x86_64-linux-gnu --cc=cc --cxx=g++ --enable-gpl --enable-shared --disable-stripping --disable-decoder=libopenjpeg --disable-decoder=libschroedinger --enable-avresample --enable-avisynth --enable-gnutls --enable-ladspa --enable-libass --enable-libbluray --enable-libbs2b --enable-libcaca --enable-libcdio --enable-libflite --enable-libfontconfig --enable-libfreetype --enable-libfribidi --enable-libgme --enable-libgsm --enable-libmodplug --enable-libmp3lame --enable-libopenjpeg --enable-libopus --enable-libpulse --enable-librtmp --enable-libschroedinger --enable-libshine --enable-libsnappy --enable-libsoxr --enable-libspeex --enable-libssh --enable-libtheora --enable-libtwolame --enable-libvorbis --enable-libvpx --enable-libwavpack --enable-libwebp --enable-libx265 --enable-libxvid --enable-libzvbi --enable-openal --enable-opengl --enable-x11grab --enable-libdc1394 --enable-libiec61883 --enable-libzmq --enable-frei0r --enable-libx264 --enable-libopencv
  libavutil      54. 31.100 / 54. 31.100
  libavcodec     56. 60.100 / 56. 60.100
  libavformat    56. 40.101 / 56. 40.101
  libavdevice    56.  4.100 / 56.  4.100
  libavfilter     5. 40.101 /  5. 40.101
  libavresample   2.  1.  0 /  2.  1.  0
  libswscale      3.  1.101 /  3.  1.101
  libswresample   1.  2.101 /  1.  2.101
  libpostproc    53.  3.100 / 53.  3.100
Input #0, mov,mp4,m4a,3gp,3g2,mj2, from '/home/horvathandras/vatic/vatic/public/videouploads/DJI_0017_total_ragott_Homokmegy_20180715_napos_napraforgo_T3.avi':
  Metadata:
    major_brand     : qt  
    minor_version   : 537986816
    compatible_brands: qt  
    creation_time   : 2018-07-15 10:12:51
    location        : +46.515679+19.137314+30.000
    location-{    : +46.515679+19.137314+30.000
    comment         : DE=None, Mode=P, DSW=0001
  Duration: 00:00:11.80, start: 0.000000, bitrate: 101349 kb/s
    Stream #0:0(eng): Video: h264 (High) (avc1 / 0x31637661), yuv420p(tv, bt709), 4096x2160 [SAR 1:1 DAR 256:135], 101340 kb/s, 50 fps, 50 tbr, 50k tbn, 100 tbc (default)
    Metadata:
      creation_time   : 2018-07-15 10:12:51
      handler_name    : DJI.AVC
      encoder         : AVC encoder
    Stream #0:1(eng): Data: none (priv / 0x76697270), 4 kb/s
    Metadata:
      creation_time   : 2018-07-15 10:12:51
      handler_name    : DJI.Meta
Please use -b:a or -b:v, -b is ambiguous
[swscaler @ 0x2040be0] deprecated pixel format used, make sure you did set range correctly
Output #0, image2, to '/tmp/pyvision-ffmpeg-844387982/%d.jpg':
  Metadata:
    major_brand     : qt  
    minor_version   : 537986816
    compatible_brands: qt  
    comment         : DE=None, Mode=P, DSW=0001
    location        : +46.515679+19.137314+30.000
    location-{    : +46.515679+19.137314+30.000
    encoder         : Lavf56.40.101
    Stream #0:0(eng): Video: mjpeg, yuvj420p(pc), 4096x2160 [SAR 1:1 DAR 256:135], q=2-31, 10000 kb/s, 50 fps, 50 tbn, 50 tbc (default)
    Metadata:
      creation_time   : 2018-07-15 10:12:51
      handler_name    : DJI.AVC
      encoder         : Lavc56.60.100 mjpeg
Stream mapping:
  Stream #0:0 -> #0:0 (h264 (native) -> mjpeg (native))
Press [q] to stop, [?] for help
frame=    1 fps=0.0 q=20.1 size=N/A time=00:00:00.02 bitrate=N/A    frame=    5 fps=4.3 q=24.8 size=N/A time=00:00:00.10 bitrate=N/A    frame=   10 fps=5.7 q=24.8 size=N/A time=00:00:00.20 bitrate=N/A    frame=   15 fps=6.4 q=24.8 size=N/A time=00:00:00.30 bitrate=N/A    frame=   20 fps=6.8 q=24.8 size=N/A time=00:00:00.40 bitrate=N/A    frame=   25 fps=7.0 q=24.8 size=N/A time=00:00:00.50 bitrate=N/A    frame=   30 fps=7.2 q=24.8 size=N/A time=00:00:00.60 bitrate=N/A    frame=   35 fps=7.4 q=24.8 size=N/A time=00:00:00.70 bitrate=N/A    frame=   40 fps=7.5 q=24.8 size=N/A time=00:00:00.80 bitrate=N/A    frame=   45 fps=7.5 q=24.8 size=N/A time=00:00:00.90 bitrate=N/A    frame=   50 fps=7.6 q=24.8 size=N/A time=00:00:01.00 bitrate=N/A    frame=   55 fps=7.7 q=24.8 size=N/A time=00:00:01.10 bitrate=N/A    frame=   60 fps=7.7 q=24.8 size=N/A time=00:00:01.20 bitrate=N/A    frame=   65 fps=7.8 q=24.8 size=N/A time=00:00:01.30 bitrate=N/A    frame=   70 fps=7.8 q=24.8 size=N/A time=00:00:01.40 bitrate=N/A    frame=   75 fps=7.9 q=24.8 size=N/A time=00:00:01.50 bitrate=N/A    frame=   80 fps=7.9 q=24.8 size=N/A time=00:00:01.60 bitrate=N/A    frame=   85 fps=7.9 q=24.8 size=N/A time=00:00:01.70 bitrate=N/A    frame=   90 fps=7.9 q=24.8 size=N/A time=00:00:01.80 bitrate=N/A    frame=   95 fps=8.0 q=24.8 size=N/A time=00:00:01.90 bitrate=N/A    frame=  100 fps=8.0 q=24.8 size=N/A time=00:00:02.00 bitrate=N/A    frame=  105 fps=8.0 q=24.8 size=N/A time=00:00:02.10 bitrate=N/A    frame=  110 fps=8.0 q=24.8 size=N/A time=00:00:02.20 bitrate=N/A    frame=  115 fps=8.0 q=24.8 size=N/A time=00:00:02.30 bitrate=N/A    frame=  120 fps=8.0 q=24.8 size=N/A time=00:00:02.40 bitrate=N/A    frame=  125 fps=8.1 q=24.8 size=N/A time=00:00:02.50 bitrate=N/A    frame=  130 fps=8.1 q=24.8 size=N/A time=00:00:02.60 bitrate=N/A    frame=  135 fps=8.1 q=24.8 size=N/A time=00:00:02.70 bitrate=N/A    frame=  140 fps=8.1 q=24.8 size=N/A time=00:00:02.80 bitrate=N/A    frame=  145 fps=8.1 q=24.8 size=N/A time=00:00:02.90 bitrate=N/A    frame=  150 fps=8.1 q=24.8 size=N/A time=00:00:03.00 bitrate=N/A    frame=  155 fps=8.1 q=24.8 size=N/A time=00:00:03.10 bitrate=N/A    frame=  160 fps=8.1 q=24.8 size=N/A time=00:00:03.20 bitrate=N/A    frame=  165 fps=8.1 q=24.8 size=N/A time=00:00:03.30 bitrate=N/A    frame=  170 fps=8.1 q=24.8 size=N/A time=00:00:03.40 bitrate=N/A    frame=  175 fps=8.1 q=24.8 size=N/A time=00:00:03.50 bitrate=N/A    frame=  180 fps=8.2 q=24.8 size=N/A time=00:00:03.60 bitrate=N/A    frame=  185 fps=8.2 q=24.8 size=N/A time=00:00:03.70 bitrate=N/A    frame=  190 fps=8.2 q=24.8 size=N/A time=00:00:03.80 bitrate=N/A    frame=  195 fps=8.2 q=24.8 size=N/A time=00:00:03.90 bitrate=N/A    frame=  200 fps=8.2 q=24.8 size=N/A time=00:00:04.00 bitrate=N/A    frame=  205 fps=8.2 q=24.8 size=N/A time=00:00:04.10 bitrate=N/A    frame=  210 fps=8.2 q=24.8 size=N/A time=00:00:04.20 bitrate=N/A    frame=  215 fps=8.2 q=24.8 size=N/A time=00:00:04.30 bitrate=N/A    frame=  220 fps=8.2 q=24.8 size=N/A time=00:00:04.40 bitrate=N/A    frame=  225 fps=8.2 q=24.8 size=N/A time=00:00:04.50 bitrate=N/A    frame=  230 fps=8.2 q=24.8 size=N/A time=00:00:04.60 bitrate=N/A    frame=  235 fps=8.2 q=24.8 size=N/A time=00:00:04.70 bitrate=N/A    frame=  240 fps=8.2 q=24.8 size=N/A time=00:00:04.80 bitrate=N/A    frame=  245 fps=8.2 q=24.8 size=N/A time=00:00:04.90 bitrate=N/A    frame=  250 fps=8.2 q=24.8 size=N/A time=00:00:05.00 bitrate=N/A    frame=  255 fps=8.2 q=24.8 size=N/A time=00:00:05.10 bitrate=N/A    frame=  260 fps=8.2 q=24.8 size=N/A time=00:00:05.20 bitrate=N/A    frame=  265 fps=8.2 q=24.8 size=N/A time=00:00:05.30 bitrate=N/A    frame=  270 fps=8.2 q=24.8 size=N/A time=00:00:05.40 bitrate=N/A    frame=  275 fps=8.2 q=24.8 size=N/A time=00:00:05.50 bitrate=N/A    frame=  280 fps=8.2 q=24.8 size=N/A time=00:00:05.60 bitrate=N/A    frame=  285 fps=8.2 q=24.8 size=N/A time=00:00:05.70 bitrate=N/A    frame=  290 fps=8.2 q=24.8 size=N/A time=00:00:05.80 bitrate=N/A    frame=  295 fps=8.2 q=24.8 size=N/A time=00:00:05.90 bitrate=N/A    frame=  300 fps=8.2 q=24.8 size=N/A time=00:00:06.00 bitrate=N/A    frame=  305 fps=8.2 q=24.8 size=N/A time=00:00:06.10 bitrate=N/A    frame=  310 fps=8.2 q=24.8 size=N/A time=00:00:06.20 bitrate=N/A    frame=  315 fps=8.2 q=24.8 size=N/A time=00:00:06.30 bitrate=N/A    frame=  320 fps=8.2 q=24.8 size=N/A time=00:00:06.40 bitrate=N/A    frame=  325 fps=8.2 q=24.8 size=N/A time=00:00:06.50 bitrate=N/A    frame=  330 fps=8.3 q=24.8 size=N/A time=00:00:06.60 bitrate=N/A    frame=  335 fps=8.3 q=24.8 size=N/A time=00:00:06.70 bitrate=N/A    frame=  340 fps=8.3 q=24.8 size=N/A time=00:00:06.80 bitrate=N/A    frame=  345 fps=8.3 q=24.8 size=N/A time=00:00:06.90 bitrate=N/A    frame=  350 fps=8.3 q=24.8 size=N/A time=00:00:07.00 bitrate=N/A    frame=  355 fps=8.3 q=24.8 size=N/A time=00:00:07.10 bitrate=N/A    frame=  360 fps=8.3 q=24.8 size=N/A time=00:00:07.20 bitrate=N/A    frame=  365 fps=8.3 q=24.8 size=N/A time=00:00:07.30 bitrate=N/A    frame=  370 fps=8.3 q=24.8 size=N/A time=00:00:07.40 bitrate=N/A    frame=  375 fps=8.3 q=24.8 size=N/A time=00:00:07.50 bitrate=N/A    frame=  380 fps=8.3 q=24.8 size=N/A time=00:00:07.60 bitrate=N/A    frame=  385 fps=8.3 q=24.8 size=N/A time=00:00:07.70 bitrate=N/A    frame=  389 fps=8.3 q=24.8 size=N/A time=00:00:07.78 bitrate=N/A    frame=  394 fps=8.3 q=24.8 size=N/A time=00:00:07.88 bitrate=N/A    frame=  399 fps=8.3 q=24.8 size=N/A time=00:00:07.98 bitrate=N/A    frame=  404 fps=8.3 q=24.8 size=N/A time=00:00:08.08 bitrate=N/A    frame=  409 fps=8.3 q=24.8 size=N/A time=00:00:08.18 bitrate=N/A    frame=  414 fps=8.3 q=24.8 size=N/A time=00:00:08.28 bitrate=N/A    frame=  419 fps=8.3 q=24.8 size=N/A time=00:00:08.38 bitrate=N/A    frame=  424 fps=8.3 q=24.8 size=N/A time=00:00:08.48 bitrate=N/A    frame=  429 fps=8.3 q=24.8 size=N/A time=00:00:08.58 bitrate=N/A    frame=  434 fps=8.3 q=24.8 size=N/A time=00:00:08.68 bitrate=N/A    frame=  439 fps=8.3 q=24.8 size=N/A time=00:00:08.78 bitrate=N/A    frame=  444 fps=8.3 q=24.8 size=N/A time=00:00:08.88 bitrate=N/A    frame=  449 fps=8.3 q=24.8 size=N/A time=00:00:08.98 bitrate=N/A    frame=  454 fps=8.3 q=24.8 size=N/A time=00:00:09.08 bitrate=N/A    frame=  459 fps=8.3 q=24.8 size=N/A time=00:00:09.18 bitrate=N/A    frame=  464 fps=8.3 q=24.8 size=N/A time=00:00:09.28 bitrate=N/A    frame=  469 fps=8.3 q=24.8 size=N/A time=00:00:09.38 bitrate=N/A    frame=  474 fps=8.3 q=24.8 size=N/A time=00:00:09.48 bitrate=N/A    frame=  479 fps=8.3 q=24.8 size=N/A time=00:00:09.58 bitrate=N/A    frame=  484 fps=8.3 q=24.8 size=N/A time=00:00:09.68 bitrate=N/A    frame=  489 fps=8.3 q=24.8 size=N/A time=00:00:09.78 bitrate=N/A    frame=  494 fps=8.3 q=24.8 size=N/A time=00:00:09.88 bitrate=N/A    frame=  499 fps=8.3 q=24.8 size=N/A time=00:00:09.98 bitrate=N/A    frame=  504 fps=8.3 q=24.8 size=N/A time=00:00:10.08 bitrate=N/A    frame=  509 fps=8.3 q=24.8 size=N/A time=00:00:10.18 bitrate=N/A    frame=  514 fps=8.3 q=24.8 size=N/A time=00:00:10.28 bitrate=N/A    frame=  519 fps=8.3 q=24.8 size=N/A time=00:00:10.38 bitrate=N/A    frame=  524 fps=8.3 q=24.8 size=N/A time=00:00:10.48 bitrate=N/A    frame=  529 fps=8.3 q=24.8 size=N/A time=00:00:10.58 bitrate=N/A    frame=  534 fps=8.3 q=24.8 size=N/A time=00:00:10.68 bitrate=N/A    frame=  539 fps=8.3 q=24.8 size=N/A time=00:00:10.78 bitrate=N/A    frame=  544 fps=8.3 q=24.8 size=N/A time=00:00:10.88 bitrate=N/A    frame=  549 fps=8.3 q=24.8 size=N/A time=00:00:10.98 bitrate=N/A    frame=  554 fps=8.3 q=24.8 size=N/A time=00:00:11.08 bitrate=N/A    frame=  559 fps=8.3 q=24.8 size=N/A time=00:00:11.18 bitrate=N/A    frame=  564 fps=8.3 q=24.8 size=N/A time=00:00:11.28 bitrate=N/A    frame=  569 fps=8.3 q=24.8 size=N/A time=00:00:11.38 bitrate=N/A    frame=  574 fps=8.3 q=24.8 size=N/A time=00:00:11.48 bitrate=N/A    frame=  579 fps=8.3 q=24.8 size=N/A time=00:00:11.58 bitrate=N/A    frame=  584 fps=8.3 q=24.8 size=N/A time=00:00:11.68 bitrate=N/A    frame=  589 fps=8.3 q=24.8 size=N/A time=00:00:11.78 bitrate=N/A    frame=  590 fps=8.3 q=24.8 Lsize=N/A time=00:00:11.80 bitrate=N/A    
video:534036kB audio:0kB subtitle:0kB other streams:0kB global headers:0kB muxing overhead: unknown
+ turkic load DJI_0017_total_ragott_Homokmegy_20180715_napos_napraforgo_T3 /home/horvathandras/vatic/vatic/videos/DJI_0017_total_ragott_Homokmegy_20180715_napos_napraforgo_T3 $'Pozit\303\255vROI' $'Negat\303\255vROI' $'T\303\272r\303\241s' '~Friss' '~1-2Hetes' '~Régebbi' '~Egyéb1' '~Egyéb2' '~Egyéb3' $'R\303\241g\303\241s' '~Friss' '~1-2Hetes' '~Régebbi' '~Egyéb1' '~Egyéb2' '~Egyéb3' $'T\303\266r\303\251s' '~Friss' '~1-2Hetes' '~Régebbi' '~Egyéb1' '~Egyéb2' '~Egyéb3' $'Tapos\303\241s' '~Friss' '~1-2Hetes' '~Régebbi' '~Egyéb1' '~Egyéb2' '~Egyéb3' $'Eg\303\251szs\303\251gesN\303\266v\303\251ny' $'Egy\303\251b1' $'Egy\303\251b2' $'Egy\303\251b3' $'Egy\303\251b4' $'Egy\303\251b5' Bizonytalan $'M\305\261vel\305\221\303\272t' $'Gktapos\303\241s' $'Vet\305\221hiba' $'Sz\303\251ld\303\266nt\303\251s' $'J\303\251gk\303\241r' $'Belv\303\255z' $'Asz\303\241ly' $'Er\303\263zi\303\263' $'Egyszik\305\261Gyom' $'K\303\251tszik\305\261Gyom' $'Egy\303\251bN\303\266vv\303\251delmiPR' --offline --title '$filenameNoDot Video' --length 1000 --description 'vatic annotation'
+ turkic publish --offline
+ mkdir /home/horvathandras/vatic/vatic/public/videothumbnails/DJI_0017_total_ragott_Homokmegy_20180715_napos_napraforgo_T3
+ cp /home/horvathandras/vatic/vatic/videos/DJI_0017_total_ragott_Homokmegy_20180715_napos_napraforgo_T3/0/0/31.jpg /home/horvathandras/vatic/vatic/public/videothumbnails/DJI_0017_total_ragott_Homokmegy_20180715_napos_napraforgo_T3/thumb.jpg
